<svg width="1275" height="300" viewBox="0 0 1275 300" fill="none" xmlns="http://www.w3.org/2000/svg">
<path d="M1125 218.182H1275V300H975V0H1275V81.8182H1125V109.091H1275V190.909H1125V218.182Z" fill="black"/>
<path d="M650 0H950V136.364L775 218.182H950V300H650V163.636L825 81.8182H650V0Z" fill="black"/>
<path d="M325 0H625V300H500V245.455H450V300H325V0ZM450 81.8182V163.636H500V81.8182H450Z" fill="black"/>
<path d="M125 81.8182V109.091H175V81.8182H125ZM125 190.909V300H0V0H300V190.909H250L300 300H175L125 190.909Z" fill="black"/>
</svg>
