<svg width="500" height="695" viewBox="0 0 500 695" fill="none" xmlns="http://www.w3.org/2000/svg">
<path d="M430.108 605.091C378.972 662.135 307.991 695 235.272 695C216.006 695 196.739 692.539 178.052 687.906C126.483 675.165 82.4453 647.077 46.9547 604.367C45.7958 602.919 -52.4188 476.959 38.6977 326.675C43.6229 318.712 49.1276 311.473 53.4734 305.971C93.1648 256.022 131.987 186.961 110.838 156.412C109.197 153.993 108.332 151.132 108.358 148.209C108.384 145.287 109.299 142.441 110.983 140.052C114.314 134.984 120.543 132.668 126.338 134.26C131.987 135.563 175.735 149.318 185.151 235.897C194.711 215.628 203.113 188.553 201.085 157.715C198.043 110.95 172.403 66.5024 124.744 25.3844C122.251 23.2312 120.573 20.2869 119.993 17.0448C119.413 13.8027 119.965 10.4598 121.557 7.57621C124.744 1.64015 131.842 -1.40026 138.216 0.626681C141.548 1.49537 451.112 95.314 404.178 416.006C422.285 396.605 442.421 358.962 437.496 290.045C437.061 283.241 441.262 277.16 447.636 275.133C454.154 273.106 461.108 275.857 464.439 281.648C465.453 283.385 563.233 456.4 430.108 605.091Z" fill="url(#paint0_linear_2232_3)"/>
<defs>
<linearGradient id="paint0_linear_2232_3" x1="250" y1="0" x2="250" y2="695" gradientUnits="userSpaceOnUse">
<stop stop-color="#FC0000"/>
<stop offset="1" stop-color="#C11414"/>
</linearGradient>
</defs>
</svg>
