<svg width="625" height="625" viewBox="0 0 625 625" fill="none" xmlns="http://www.w3.org/2000/svg">
<path d="M475 543.182H625V625H325V325H625V406.818H475V434.091H625V515.909H475V543.182Z" fill="black"/>
<path d="M0 325H300V461.364L125 543.182H300V625H0V488.636L175 406.818H0V325Z" fill="black"/>
<path d="M325 0H625V300H500V245.455H450V300H325V0ZM450 81.8182V163.636H500V81.8182H450Z" fill="black"/>
<path d="M125 81.8182V109.091H175V81.8182H125ZM125 190.909V300H0V0H300V190.909H250L300 300H175L125 190.909Z" fill="black"/>
</svg>
